<svg xmlns="http://www.w3.org/2000/svg" viewBox="0 0 800 800" width="800" height="800" role="img"><rect width="800" height="800" fill="#FBECEC"/><circle cx="400" cy="368" r="272" fill="#fff" opacity=".55"/><ellipse cx="400" cy="648" rx="240" ry="38.4" fill="#111827" opacity=".10"/><path d="M150 300c0-30 26-52 58-46l70 14 24 108-152 40z" fill="#E08682"/><path d="M150 376l186-46 42 92 120 26c92 20 158 44 176 96H150z" fill="#F3C9C7"/><path d="M560 448c60 16 100 40 114 96h-150l-14-84z" fill="#E08682" opacity=".55"/><path d="M132 544h542c10 0 16 8 14 18l-6 30H150c-24 0-40-20-18-48z" fill="#fff" opacity=".85"/><path d="M138 592h544l-6 26c-2 12-12 20-24 20H176c-22 0-36-18-38-46z" fill="#7A2321"/><g stroke="#7A2321" stroke-width="14" stroke-linecap="round" opacity=".75"><path d="M300 372l70-24M328 416l70-24M356 460l70-24"/></g><path d="M418 484l150 30" stroke="#111827" stroke-width="18" stroke-linecap="round"/></svg>