<svg xmlns="http://www.w3.org/2000/svg" viewBox="0 0 800 800" width="800" height="800" role="img"><rect width="800" height="800" fill="#E9F4EF"/><circle cx="400" cy="368" r="272" fill="#fff" opacity=".55"/><ellipse cx="400" cy="668" rx="130" ry="20.8" fill="#111827" opacity=".10"/><rect x="348" y="112" width="104" height="72" rx="18" fill="#8CC2AA"/><path d="M330 184h140c40 0 66 30 66 70v300a86 86 0 0 1-86 86h-100a86 86 0 0 1-86-86V254c0-40 26-70 66-70z" fill="#20493A"/><rect x="288" y="330" width="224" height="120" fill="#C3E0D2" opacity=".92"/><rect x="326" y="366" width="148" height="16" rx="8" fill="#20493A" opacity=".55"/><rect x="326" y="400" width="96" height="14" rx="7" fill="#E53935"/></svg>